<?xml version="1.0" encoding="UTF-8" standalone="no"?>
<!-- Created with Inkscape (http://www.inkscape.org/) -->

<svg
   xmlns:dc="http://purl.org/dc/elements/1.1/"
   xmlns:cc="http://creativecommons.org/ns#"
   xmlns:rdf="http://www.w3.org/1999/02/22-rdf-syntax-ns#"
   xmlns:svg="http://www.w3.org/2000/svg"
   xmlns="http://www.w3.org/2000/svg"
   xmlns:sodipodi="http://sodipodi.sourceforge.net/DTD/sodipodi-0.dtd"
   xmlns:inkscape="http://www.inkscape.org/namespaces/inkscape"
   id="svg2172"
   sodipodi:docname="signalbox - icon.svg"
   viewBox="0 0 342.32 342.24001"
   sodipodi:version="0.32"
   version="1.0"
   inkscape:output_extension="org.inkscape.output.svg.inkscape"
   inkscape:version="0.91 r13725"
   width="342.32001"
   height="342.24002"
   inkscape:export-filename="/home/uwe/Develop/workspace-android-studio/Signalbox/misc/signalbox-icon-144.png"
   inkscape:export-xdpi="37.860001"
   inkscape:export-ydpi="37.860001">
  <defs
     id="defs18">
    <marker
       inkscape:stockid="Arrow1Lstart"
       orient="auto"
       refY="0.0"
       refX="0.0"
       id="Arrow1Lstart"
       style="overflow:visible"
       inkscape:isstock="true">
      <path
         id="path4179"
         d="M 0.0,0.0 L 5.0,-5.0 L -12.5,0.0 L 5.0,5.0 L 0.0,0.0 z "
         style="fill-rule:evenodd;stroke:#000000;stroke-width:1pt;stroke-opacity:1;fill:#000000;fill-opacity:1"
         transform="scale(0.8) translate(12.5,0)" />
    </marker>
  </defs>
  <sodipodi:namedview
     id="base"
     bordercolor="#666666"
     inkscape:pageshadow="2"
     guidetolerance="10.0"
     pagecolor="#626262"
     gridtolerance="10.0"
     inkscape:zoom="1.5800488"
     objecttolerance="10.0"
     borderopacity="1.0"
     inkscape:current-layer="layer3"
     inkscape:cx="203.08499"
     inkscape:cy="228.56799"
     inkscape:window-y="-4"
     inkscape:window-x="-4"
     inkscape:window-height="744"
     showgrid="false"
     inkscape:pageopacity="0"
     inkscape:window-width="1280" />
  <metadata
     id="metadata16">
    <rdf:RDF>
      <cc:Work>
        <dc:format>image/svg+xml</dc:format>
        <dc:type
           rdf:resource="http://purl.org/dc/dcmitype/StillImage" />
        <cc:license
           rdf:resource="http://creativecommons.org/publicdomain/zero/1.0/" />
        <dc:publisher>
          <cc:Agent
             rdf:about="http://openclipart.org/">
            <dc:title>Openclipart</dc:title>
          </cc:Agent>
        </dc:publisher>
        <dc:title></dc:title>
        <dc:date>2008-09-01T13:02:19</dc:date>
        <dc:description>An German &quot;Inter City Express&quot; (ICE) train. http://en.wikipedia.org/wiki/InterCityExpress</dc:description>
        <dc:source>https://openclipart.org/detail/18947/ice-train-by-mbs</dc:source>
        <dc:creator>
          <cc:Agent>
            <dc:title>mbs</dc:title>
          </cc:Agent>
        </dc:creator>
        <dc:subject>
          <rdf:Bag>
            <rdf:li>germany</rdf:li>
            <rdf:li>ice</rdf:li>
            <rdf:li>inkscape</rdf:li>
            <rdf:li>speed</rdf:li>
            <rdf:li>train</rdf:li>
            <rdf:li>transportation</rdf:li>
          </rdf:Bag>
        </dc:subject>
      </cc:Work>
      <cc:License
         rdf:about="http://creativecommons.org/publicdomain/zero/1.0/">
        <cc:permits
           rdf:resource="http://creativecommons.org/ns#Reproduction" />
        <cc:permits
           rdf:resource="http://creativecommons.org/ns#Distribution" />
        <cc:permits
           rdf:resource="http://creativecommons.org/ns#DerivativeWorks" />
      </cc:License>
    </rdf:RDF>
  </metadata>
  <g
     inkscape:groupmode="layer"
     id="layer1"
     inkscape:label="Layer 1"
     style="display:inline">
    <path
       inkscape:connector-curvature="0"
       id="path4736"
       d="m 44.313664,226.2691 c 0,-21.03436 -0.16066,-24.79613 -1.092,-25.56907 -0.94471,-0.78404 -1.092,-5.94598 -1.092,-38.27052 l 0,-37.36424 -1.81999,-3.42294 c -1.001,-1.88261 -1.82,-4.58111 -1.82,-5.99665 0,-3.17799 2.43696,-8.37869 4.58587,-9.78672 1.36807,-0.89639 1.56609,-1.58803 1.35419,-4.72994 -0.20488,-3.037879 -0.52249,-3.756599 -1.82013,-4.118849 -1.6964,-0.47356 -10.05528,-10.697488 -10.21244,-12.491063 -0.0525,-0.599269 2.65316,-3.286742 6.01259,-5.972161 l 6.10807,-4.88258 0.0799,-5.459986 0.0799,-5.459985 7.01524,-0.02468 7.01523,-0.02468 16.07829,-12.593371 c 14.72214,-11.53118 16.24985,-12.93998 18.11241,-16.70269 1.48213,-2.99419 2.82114,-4.55506 4.93439,-5.75192 5.911316,-3.34796 13.300386,-1.40028 16.700836,4.40215 2.20179,3.75706 2.32439,7.01486 0.42175,11.2062 -1.5578,3.43166 -4.32515,5.43569 -9.85432,7.13622 -2.80478,0.86262 -8.716786,5.080921 -25.765596,18.384099 l -22.12561,17.26461 0.0676,9.386489 c 0.064,8.884237 0.16215,9.488017 1.83471,11.283967 0.97192,1.04361 2.13475,2.61304 2.58407,3.48762 1.28034,2.49209 0.9694,8.47086 -0.62306,11.98033 -1.3744,3.02891 -1.44074,4.88629 -1.456,40.7695 -0.0139,32.73716 -0.15711,37.65017 -1.10798,38.01505 -0.94106,0.36112 -1.092,3.84337 -1.092,25.19383 0,15.65851 -0.26197,24.77478 -0.71194,24.77478 -7.1181,0.22979 -6.84175,0.35301 -11.68009,0 -0.44991,0 -0.71194,-9.07724 -0.71193,-24.6628 z"
       style="fill:#ffffff;fill-opacity:1"
       sodipodi:nodetypes="ssscssssssscccccssssssscsssssssccs" />
    <path
       inkscape:connector-curvature="0"
       id="path4734"
       d="m 44.181784,249.93789 c 0,-0.4004 0.3276,-0.728 0.728,-0.728 0.4004,0 0.728,0.3276 0.728,0.728 0,0.4004 -0.3276,0.728 -0.728,0.728 -0.4004,0 -0.728,-0.3276 -0.728,-0.728 z m 11.64797,0 c 0,-0.4004 0.3276,-0.728 0.728,-0.728 0.4004,0 0.728,0.3276 0.728,0.728 0,0.4004 -0.3276,0.728 -0.728,0.728 -0.4004,0 -0.728,-0.3276 -0.728,-0.728 z m -10.91997,-38.04478 c 0,-9.59243 -0.11058,-10.44992 -1.456,-11.29015 -1.42534,-0.89013 -1.45599,-1.6977 -1.45599,-38.35649 l 0,-37.44721 -1.82,-3.42294 c -1.001,-1.88261 -1.81999,-4.58111 -1.81999,-5.99665 0,-3.28266 2.46001,-8.3938 4.76773,-9.90588 1.52793,-1.00114 1.78425,-1.73208 1.78425,-5.08812 0,-3.363409 -0.18063,-3.875771 -1.274,-3.613751 -0.7007,0.167922 -1.6262,0.0553 -2.05667,-0.25015 -1.19439,-0.84766 -9.7733,-11.851611 -9.7733,-12.535971 0,-0.33063 2.9484,-2.930047 6.55199,-5.776483 3.60359,-2.846436 6.57465,-5.584751 6.60237,-6.085146 0.0277,-0.500394 0.10961,-2.711603 0.18199,-4.913797 l 0.13162,-4.003989 6.32846,-0.123564 6.32846,-0.123563 16.40584,-12.868131 c 15.02328,-11.7837 16.57685,-13.21362 18.43518,-16.9678 1.47744,-2.98469 2.81814,-4.54641 4.92964,-5.74228 5.911306,-3.34795 13.300376,-1.40028 16.700826,4.40215 2.1958,3.74686 2.3247,7.01438 0.44042,11.16449 -1.58801,3.49758 -3.6434,5.03626 -9.15745,6.85535 -3.04399,1.00422 -8.938406,5.172796 -26.145406,18.490215 -12.21849,9.456533 -22.40927,17.507338 -22.64618,17.890668 -0.23691,0.38334 -0.43486,4.501121 -0.43987,9.150631 -0.009,8.372891 0.0114,8.475411 2.1441,10.730681 1.18428,1.25237 2.52013,2.99259 2.96858,3.86717 1.27879,2.49396 0.96708,8.47246 -0.62466,11.98033 -1.37445,3.02901 -1.44073,4.88639 -1.45599,40.79833 -0.0157,36.97836 -0.041,37.63278 -1.47199,38.08696 -1.36739,0.43399 -1.45599,1.10148 -1.45599,10.96903 l 0,10.50691 -5.82399,0 -5.82398,0 0,-10.38085 z m 9.82797,-50.77099 0,-33.8519 -4.00399,0 -4.00399,0 -0.18977,33.1239 c -0.10438,18.21816 -0.0261,33.55066 0.17385,34.07224 0.25087,0.65423 1.55142,0.88 4.19377,0.728 l 3.83013,-0.22033 0,-33.85191 z m -1.07742,-40.41143 c 5.07512,-2.62444 4.92486,-9.47143 -0.25536,-11.63587 -2.94722,-1.23143 -5.75826,-0.68697 -7.828,1.51616 -2.95703,3.14761 -1.5496,8.82903 2.6088,10.53103 2.14986,0.87992 3.11828,0.80716 5.47456,-0.41132 z m 5.86985,-42.660179 c 8.17494,-6.450291 19.85941,-15.672133 25.96549,-20.492984 6.84913,-5.407502 11.10198,-9.259762 11.10198,-10.056282 0,-1.34619 -3.33724,-5.77081 -4.35258,-5.77081 -0.52268,0 -21.45651,16.286678 -44.6053,34.703263 -4.70469,3.742929 -8.55398,7.26874 -8.55398,7.83512 0,1.36061 3.5206,5.509501 4.67515,5.509501 0.49815,0 7.59431,-5.277511 15.76924,-11.727808 z M 108.6427,42.127525 c 1.77748,-1.77747 2.36741,-5.31722 1.33469,-8.00845 -0.74204,-1.93372 -4.52995,-3.492 -7.24866,-2.98197 -2.792416,0.52387 -5.403086,3.42085 -5.403086,5.99568 0,2.11317 1.79186,5.77666 3.078676,6.2944 2.59712,1.04495 6.51126,0.42747 8.23838,-1.29966 z"
       style="fill:#f20c0c" />
    <path
       inkscape:connector-curvature="0"
       id="path4732"
       d="m 44.155434,250.36212 c 0,-0.4004 0.3276,-0.728 0.728,-0.728 0.4004,0 0.728,0.3276 0.728,0.728 0,0.4004 -0.3276,0.728 -0.728,0.728 -0.4004,0 -0.728,-0.3276 -0.728,-0.728 z m 11.64797,0 c 0,-0.4004 0.3276,-0.728 0.728,-0.728 0.4004,0 0.728,0.3276 0.728,0.728 0,0.4004 -0.3276,0.728 -0.728,0.728 -0.4004,0 -0.728,-0.3276 -0.728,-0.728 z m -10.75796,-38.0379 0.20199,-10.37397 5.45999,0 5.45998,0 0.20199,10.37397 0.20199,10.37397 -5.86396,0 -5.86397,0 0.20199,-10.37397 z M 44.883824,99.647671 c -3.8e-4,-3.230081 0.0995,-3.369595 5.08168,-7.097981 2.79514,-2.091727 5.41593,-3.80314 5.82398,-3.80314 0.45331,0 0.74192,2.768959 0.74192,7.117919 l 0,7.117921 -5.82359,-0.0199 -5.8236,-0.02 -3.9e-4,-3.294839 z m 0.30375,-28.630557 c -0.2178,-0.567568 -0.29343,-2.461717 -0.16807,-4.20922 l 0.22793,-3.177277 4.91399,-0.215262 c 2.78453,-0.121979 4.91398,0.08583 4.91398,0.479546 0,0.382144 -2.13566,2.373161 -4.74592,4.424482 -3.49511,2.7467 -4.85028,3.4577 -5.14191,2.697731 z"
       style="fill:#0a0405" />
  </g>
  <g
     inkscape:groupmode="layer"
     id="layer3"
     inkscape:label="Layer 3"
     style="display:inline">
    <path
       id="path3335"
       style="fill:#ffffff;fill-rule:evenodd;stroke:#000000;stroke-width:0.88084602"
       d="m 204.03028,248.45225 -92.36212,-26.76598 c -8.58943,-2.57797 -32.832483,-3.62121 -46.766503,2.93612 -16.14674,7.59803 -29.78145,19.29466 -38.17018,31.45861 -8.38931,12.16396 -17.4070598,28.94316 -18.0366498,33.97755 -0.62895,5.02865 2.8447798,13.38299 10.2769198,15.72816 7.96959,2.5172 25.9919,3.2626 55.15638,-1.04931 C 92.654447,301.99659 203.95,260.6951 203.95,260.6951 l 0.0803,-12.24308 z"
       inkscape:connector-curvature="0"
       inkscape:export-xdpi="58.689999"
       inkscape:export-ydpi="58.689999" />
    <path
       id="path4309"
       style="fill:#000000;fill-rule:evenodd"
       d="m 111.83444,243.05605 c -11.51946,0.14506 -28.985013,11.05558 -42.345063,23.27802 -0.61353,0.55735 -0.43005,1.07626 0.53899,0.88073 5.09746,-1.02752 19.21439,-3.19838 25.38983,-3.58771 9.174283,-0.57798 28.709793,-1.97017 48.703993,-3.43175 l 0,-14.01087 c -14.91394,-1.61008 -27.72354,-2.93691 -31.1983,-3.11008 -0.3555,-0.0183 -0.71674,-0.0235 -1.08945,-0.0183 z m 36.32444,1.90825 c -1.04357,0 -1.88073,2.92029 -1.88073,6.55102 l 0,3.25744 c 0,3.63072 0.83716,6.55158 1.88073,6.55158 1.04357,0 1.8922,-2.92086 1.8922,-6.55158 l 0,-3.25744 c 0,-3.63073 -0.84863,-6.55102 -1.8922,-6.55102 z m 3.51489,2.04586 0,12.62554 c 15.48161,-1.13647 28.72126,-2.11353 38.63521,-2.8532 l 0,-5.4782 c -10.25799,-1.15424 -23.81299,-2.67487 -38.63521,-4.29414 z m 39.70172,4.41341 0,5.27636 c 2.05849,-0.15424 2.43119,-0.17718 4.09977,-0.30275 l 0,-4.50515 c -1.68005,-0.18979 -2.11582,-0.24484 -4.09977,-0.46846 z m 6.10091,0.68864 0,4.129 c 2.86696,-0.21559 6.37039,-0.47763 6.37039,-0.47763 l 0,-2.93577 c 0,0 -3.4977,-0.39278 -6.37039,-0.7156 z"
       inkscape:connector-curvature="0"
       inkscape:export-xdpi="58.689999"
       inkscape:export-ydpi="58.689999" />
    <path
       id="path2283"
       sodipodi:nodetypes="cssscccccccccssssscccsssssssssssssc"
       style="fill:#3737c8"
       d="m 203.53715,257.09614 c -0.79701,0.016 -1.42774,0.0889 -1.6571,0.0992 -0.81995,0.0384 -1.5711,0.42547 -1.74884,0.60551 -0.36698,0.36411 -0.086,0.49885 1.47362,0.44495 0.59633,-0.0207 1.52522,-0.24599 1.93232,-0.26892 -0.0115,-0.45814 -0.006,-0.42202 0,-0.88073 z m -4.51833,0.58543 c -2.57453,0.0946 -5.11466,0.35953 -7.64333,0.66974 l 0,1.48623 c 2.1445,-0.38705 4.4954,-0.80677 6.45641,-1.08257 1.18692,-0.26605 1.82912,-1.10435 1.18692,-1.0734 z m -8.70984,0.80735 c -2.12729,0.26949 -4.25457,0.55906 -6.39332,0.78898 -1.12958,0.14794 -4.75343,0.60895 -8.05617,1.0281 -5.89448,0.74713 -6.6571,0.97247 -6.32452,1.88073 0.0803,0.21502 0.13761,0.60149 0.13761,0.85321 0,0.57453 0.63073,0.50171 9.10548,-1.08258 3.46903,-0.64908 4.94838,-0.87958 7.1674,-1.18347 0.9461,-0.13017 2.56881,-0.42718 4.36352,-0.75288 l 0,-1.53209 z m -23.34855,3.13818 c -1.6399,0.002 -8.52635,0.70985 -19.891,2.05504 -1.37614,0.16283 -8.18231,0.961 -15.12609,1.7712 -6.9438,0.80963 -14.67313,1.73739 -17.17312,2.06422 -2.50573,0.32741 -7.78668,0.99598 -11.7431,1.48623 -13.400193,1.66226 -41.437953,5.39965 -42.733243,5.69838 -0.51376,0.11869 -4.79815,4.98393 -5.07396,5.76374 -0.0539,0.14909 0.34003,0.27524 0.88074,0.27524 1.0235,0 24.03662,-2.68921 34.00219,-3.97362 3.15366,-0.40654 7.1158,-0.87098 8.81305,-1.03784 4.604343,-0.45355 6.771773,-0.76089 11.301583,-1.58715 2.25916,-0.41284 6.42199,-1.1422 9.24882,-1.62443 15.90019,-2.71157 46.33588,-8.11178 47.31637,-8.39561 0.48739,-0.13991 0.88303,-1.91972 0.55047,-2.4587 -0.0172,-0.0292 -0.13762,-0.0373 -0.37271,-0.0367 z"
       inkscape:connector-curvature="0"
       inkscape:export-xdpi="58.689999"
       inkscape:export-ydpi="58.689999" />
    <path
       id="path5308"
       style="fill:#000000;fill-rule:evenodd"
       d="m 88.181977,231.22867 c -2.40251,1.9547 -24.85313,22.33594 -29.3623,24.43284 -4.50916,2.09747 -17.61692,5.24368 -24.32848,4.82396 -6.71099,-0.41973 -8.70353,-1.09232 -9.33254,-2.03612 10.71556,-16.36635 26.28318,-27.07102 38.90413,-33.42019 8.91282,-1.67781 20.56989,-0.32799 22.5481,1.06135 2.82682,1.99254 3.211,3.80502 1.57109,5.13816 z"
       inkscape:connector-curvature="0"
       inkscape:export-xdpi="58.689999"
       inkscape:export-ydpi="58.689999" />
    <path
       id="path7248"
       style="fill:#aaccff;fill-rule:evenodd;stroke:#000000;stroke-width:0.29361725px"
       d="m 43.879357,280.68954 9.41683,-12.16052 c -5.58083,0.24312 -11.54297,1.14048 -13.2729,2.81766 -1.76834,1.71387 -5.78324,7.56535 -5.78324,7.56535 l 9.63931,1.77751 z"
       inkscape:connector-curvature="0"
       inkscape:export-xdpi="58.689999"
       inkscape:export-ydpi="58.689999" />
    <path
       id="path7252"
       style="fill:#aaccff;fill-rule:evenodd;stroke:#000000;stroke-width:0.29361725px"
       d="m 14.441947,276.61271 0.59346,0.14909 c 0,0 2.52981,-4.43291 2.89162,-5.41512 0.22592,-0.61353 0.074,-1.11239 0.074,-1.11239 l -3.55905,6.37842 z"
       inkscape:connector-curvature="0"
       inkscape:export-xdpi="58.689999"
       inkscape:export-ydpi="58.689999" />
    <path
       id="path7255"
       style="fill:none;stroke:#0000ff;stroke-width:0.58721161"
       d="m 26.676427,274.53474 c 0.20413,0.61181 -2.15022,5.30044 -2.66914,5.63301 -0.46789,0.3039 -5.25916,-0.45872 -5.63531,-1.03784 -0.35206,-0.53325 2.30562,-5.30102 2.74369,-5.55904 0.40195,-0.23625 5.36351,0.37098 5.56076,0.96387 z"
       inkscape:connector-curvature="0"
       inkscape:export-xdpi="58.689999"
       inkscape:export-ydpi="58.689999" />
    <path
       id="path7250"
       style="fill:none;stroke:#000000;stroke-width:0.29361725px"
       d="m 12.810757,279.57715 c 0,0 20.23962,2.8383 25.65589,3.63531 5.56076,0.81423 8.14676,3.17086 8.97188,5.85434 0.84575,2.75803 1.40882,14.01372 -1.92775,18.46326"
       inkscape:connector-curvature="0"
       inkscape:export-xdpi="58.689999"
       inkscape:export-ydpi="58.689999" />
    <path
       id="path12118"
       style="fill:#000000;fill-rule:evenodd"
       d="m 195.6874,262.21425 -3.82452,1.18348 0.10894,1.62442 3.69839,-1.31249 0.0172,-1.49541 z m -6.65135,2.01834 -4.46099,1.28497 0.10325,2.22935 4.45527,-1.62385 -0.0975,-1.89047 z m -48.37141,14.28379 c -12.84974,3.73279 -26.0091,6.83484 -39.27169,9.86809 -1.467883,0.49885 -8.371533,8.88185 -9.913963,11.63414 17.723583,-5.50457 48.927623,-16.46211 48.927623,-16.46211 l 0.25803,-5.04012 z"
       inkscape:connector-curvature="0"
       inkscape:export-xdpi="58.689999"
       inkscape:export-ydpi="58.689999" />
    <path
       id="path12116"
       style="fill:none;stroke:#000000;stroke-width:0.29361725px"
       d="m 47.883357,297.6677 c 23.57849,-1.92661 71.180993,-12.75226 95.802483,-20.01714 24.61575,-7.26776 60.35533,-17.94548 60.35533,-17.94548"
       inkscape:connector-curvature="0"
       inkscape:export-xdpi="58.689999"
       inkscape:export-ydpi="58.689999" />
  </g>
  <g
     inkscape:groupmode="layer"
     id="layer2"
     inkscape:label="Layer 2"
     style="display:inline">
    <path
       id="path11134"
       style="fill:none;stroke:#000000;stroke-width:0.29361725px"
       d="m 185.47425,244.97065 c 1.43349,0.79701 3.72133,3.35377 3.74425,7.11809 l 0.0746,10.56592 c 0.0115,1.90022 -0.15481,3.37728 -0.71673,4.56707"
       inkscape:connector-curvature="0" />
    <path
       id="path11142"
       style="fill:#000000;fill-rule:evenodd"
       d="m 194.96963,253.31408 c -0.30389,0 -0.54472,0.85321 -0.54472,1.91399 l 0,0.95126 c 0,1.06077 0.24083,1.91456 0.54472,1.91456 0.30964,0 0.5562,-0.85379 0.5562,-1.91456 l 0,-0.95126 c 0,-1.06078 -0.24656,-1.91399 -0.5562,-1.91399 z"
       inkscape:connector-curvature="0" />
    <rect
       style="color:#000000;display:inline;overflow:visible;visibility:visible;opacity:1;fill:#1a1a1a;fill-opacity:0.98944594;fill-rule:nonzero;stroke:#241c1c;stroke-width:6.25071096;stroke-linecap:round;stroke-linejoin:round;stroke-miterlimit:4;stroke-dasharray:none;stroke-dashoffset:0;stroke-opacity:1;marker:none;enable-background:accumulate"
       id="rect4146"
       width="142.90434"
       height="208.38211"
       x="191.33606"
       y="96.914085"
       rx="7.6934581"
       ry="8.0457258" />
    <g
       style="fill:#00d400"
       id="g4636"
       transform="matrix(0.43276132,0,0,0.45955938,194.48173,108.07947)">
      <path
         inkscape:connector-curvature="0"
         id="path4638"
         d="M 22.069,119.75 C 9.871,119.75 0,129.782 0,142.165 l 0,87.588 c 0,12.375 9.8711,22.423 22.069,22.423 12.1979,0 22.069,-10.048 22.069,-22.423 l 0,-87.588 c 0,-12.383 -9.8791,-22.415 -22.069,-22.415 z" />
      <path
         inkscape:connector-curvature="0"
         id="path4640"
         d="m 60.189,121.05 0,158.51 c 0,9.4216 7.6481,17.054 17.054,17.054 l 19.469,0 0,48.272 c 0,12.255 9.7988,22.198 21.869,22.198 12.0702,0 21.869,-9.9353 21.869,-22.198 l 0,-48.272 34.027,0 0,48.272 c 0,12.255 9.7667,22.198 21.869,22.198 12.07,0 21.853,-9.9353 21.853,-22.198 l 0,-48.272 19.485,0 c 9.4056,0 17.038,-7.64 17.038,-17.054 l 0,-158.51 c -54.802,24.102 -114.92,35.434 -194.53,0 z" />
      <path
         inkscape:connector-curvature="0"
         id="path4642"
         d="m 292.84,119.72 c -12.182,0 -22.085,10.048 -22.085,22.431 l 0,87.62 c 0,12.383 9.9032,22.431 22.085,22.431 12.198,0 22.053,-10.048 22.053,-22.431 l 0,-87.628 c 0,-12.383 -9.855,-22.423 -22.053,-22.423 z" />
      <path
         inkscape:connector-curvature="0"
         id="path4644"
         d="m 208.46,39.703 18.482,-27.157 c 2.4958,-3.6595 1.5489,-8.6592 -2.1187,-11.155 -3.6675,-2.4959 -8.6673,-1.5408 -11.147,2.1267 l -20.15,29.613 c -11.179,-3.8682 -23.305,-6.0912 -36.082,-6.0912 -12.76,0 -24.894,2.215 -36.065,6.0831 l -20.16,-29.613 c -2.508,-3.6599 -7.491,-4.6069 -11.159,-2.119 -3.667,2.4878 -4.606,7.4955 -2.118,11.155 l 18.498,27.157 c -25.881,13.812 -43.857,37.655 -46.257,65.377 78.567,31.5 139.56,21.871 194.52,0 -2.3835,-27.727 -20.344,-51.57 -46.225,-65.374 z m -92.034,38.473 c -5.9387,0 -10.77,-4.8232 -10.77,-10.762 0,-5.9387 4.8152,-10.762 10.77,-10.762 5.9387,0 10.754,4.8232 10.754,10.762 0,5.9387 -4.8152,10.762 -10.754,10.762 z m 83.398,0 c -5.9547,0 -10.754,-4.8232 -10.754,-10.762 0,-5.9387 4.7991,-10.762 10.754,-10.762 5.9387,0 10.77,4.8232 10.77,10.762 0,5.9387 -4.8312,10.762 -10.77,10.762 z" />
    </g>
  </g>
</svg>
